<?xml version="1.0" encoding="utf-8"?>
<!-- Generator: Adobe Illustrator 16.0.0, SVG Export Plug-In . SVG Version: 6.00 Build 0)  -->
<!DOCTYPE svg PUBLIC "-//W3C//DTD SVG 1.1//EN" "http://www.w3.org/Graphics/SVG/1.1/DTD/svg11.dtd">
<svg version="1.1" xmlns="http://www.w3.org/2000/svg" xmlns:xlink="http://www.w3.org/1999/xlink" x="0px" y="0px" width="568px"
	 height="475.2px" viewBox="0 0 568 475.2" enable-background="new 0 0 568 475.2" xml:space="preserve">
<g id="Lake_Superior">
	<linearGradient id="SVGID_1_" gradientUnits="userSpaceOnUse" x1="385.4849" y1="230.5732" x2="465.4849" y2="274.5733">
		<stop  offset="0" style="stop-color:#C7EAFB"/>
		<stop  offset="1" style="stop-color:#FFFFFF"/>
	</linearGradient>
	<polyline fill="url(#SVGID_1_)" stroke="#44C8F5" stroke-width="0.2703" stroke-linejoin="round" points="426.289,370.562 
		425.566,366.24 419.835,361.195 415.537,359.03 411.972,354.713 406.225,355.429 404.083,358.312 406.225,359.748 388.33,367.678 
		386.896,364.794 390.468,361.195 389.761,355.429 395.478,353.265 392.625,342.453 397.638,336.683 404.8,325.88 404.8,322.995 
		403.365,319.396 401.927,317.955 399.783,317.228 397.638,315.071 394.055,315.071 390.468,317.228 387.615,317.955 
		384.033,318.674 381.898,320.114 379.728,322.995 377.597,323.716 374.718,324.441 371.146,325.88 369.709,328.042 
		361.839,330.206 364.697,325.88 365.419,322.995 356.112,329.487 340.347,337.413 328.176,343.178 325.32,342.453 300.261,349.664 
		285.931,348.223 278.775,343.901 278.068,340.296 276.009,338.99 274.046,337.85 272.723,338.768 274.252,337.228 278.123,334.304 
		282.001,335.279 280.045,332.364 290.692,318.749 307.101,306.101 324.507,291.511 340.931,277.896 358.322,254.558 
		375.729,235.093 382.488,223.43 384.419,221.482 396.99,213.703 414.364,198.14 433.701,189.385 438.539,183.549 455.935,177.709 
		473.327,168.958 489.759,164.099 493.613,160.21 509.082,153.399 514.875,151.455 524.546,143.675 530.342,137.84 	"/>
</g>
<g id="landmarks-counties">
	<polygon id="Ashland" fill="#C3E5DF" stroke="#000000" stroke-width="0.7696" points="388.118,367.539 388.118,454.736 
		449.688,454.736 449.688,430.959 438.236,430.959 438.236,417.988 426.076,417.988 426.076,370.423 425.353,366.102 
		419.623,361.057 415.324,358.892 411.76,354.574 406.013,355.29 403.872,358.174 406.013,359.609 	"/>
	<polygon id="Bayfield" fill="#C3E5DF" stroke="#000000" stroke-width="0.7696" points="327.964,343.039 327.964,426.635 
		388.118,426.635 388.118,367.539 386.684,364.655 390.256,361.057 389.549,355.29 395.266,353.126 392.412,342.314 
		397.425,336.544 404.588,325.741 404.588,322.856 403.152,319.258 401.715,317.816 399.571,317.089 397.425,314.933 
		393.843,314.933 390.256,317.089 387.402,317.816 383.82,318.535 381.686,319.976 379.515,322.856 377.385,323.577 
		374.506,324.303 370.934,325.741 369.497,327.903 361.627,330.067 364.484,325.741 365.207,322.856 355.899,329.349 
		340.134,337.274 	"/>
	<polygon id="Douglas" fill="#C3E5DF" stroke="#000000" stroke-width="0.7696" points="327.964,343.039 325.107,342.314 
		300.049,349.525 285.718,348.084 278.563,343.763 277.856,340.157 275.796,338.852 273.833,337.711 272.474,337.711 
		268.171,344.191 261.347,351.406 257.344,349.573 252.787,349.525 252.787,426.635 277.856,427.354 327.964,426.635 	"/>
	<polygon id="Cook" fill="#B8D3CB" stroke="#000000" stroke-width="1.0082" points="384.208,221.344 396.777,213.564 
		414.151,198.001 433.488,189.246 438.326,183.411 455.723,177.571 473.114,168.819 489.546,163.96 493.401,160.072 508.869,153.26 
		514.663,151.316 524.334,143.537 530.129,137.701 526.257,137.701 516.601,136.725 514.663,137.701 509.842,134.782 
		500.168,141.594 496.314,141.594 490.504,137.701 478.909,125.054 476.977,125.054 477.935,123.105 475.053,122.138 
		468.293,123.105 460.56,125.054 450.886,125.054 451.853,123.105 448.949,124.082 446.058,124.082 438.326,123.105 
		430.591,127.007 425.771,123.105 414.151,127.007 407.393,127.007 405.467,119.215 405.467,113.379 399.659,106.575 
		393.871,105.607 380.345,111.431 	"/>
	<polygon id="Lake" fill="#B8D3CB" stroke="#000000" stroke-width="1.0082" points="303.049,117.275 304.007,205.786 
		304.973,273.868 305.932,288.452 306.889,305.962 324.295,291.372 340.719,277.757 358.109,254.419 375.517,234.955 
		382.275,223.291 384.208,221.344 380.345,111.431 375.517,112.415 372.611,112.415 369.705,120.199 363.903,126.021 
		358.109,129.914 342.666,136.725 338.789,136.725 330.088,130.89 330.088,136.725 327.191,137.701 326.234,134.782 325.26,129.914 
		321.383,127.007 314.622,127.007 309.802,119.215 	"/>
	<polygon id="Carlton" fill="#B8D3CB" stroke="#000000" stroke-width="1.0082" points="252.787,352.651 252.787,337.089 
		174.503,337.089 175.477,389.604 252.787,389.604 	"/>
	<polygon id="StLouis" fill="#B8D3CB" stroke="#000000" stroke-width="1.0082" points="170.64,61.835 171.613,162.008 
		173.537,297.212 174.503,337.089 252.787,337.089 252.787,352.651 257.607,352.651 261.485,354.591 266.306,347.783 
		265.621,343.562 269.219,341.945 274.04,337.089 277.91,334.165 281.789,335.141 279.833,332.226 290.479,318.61 306.889,305.962 
		305.932,288.452 304.973,273.868 304.007,205.786 303.049,117.275 298.197,112.415 296.274,111.431 297.24,108.524 
		294.327,104.632 293.362,107.551 291.43,110.467 288.541,106.575 285.627,106.575 282.747,107.551 280.807,103.659 277.91,97.82 
		275.979,99.768 274.04,100.74 273.074,95.876 271.135,93.928 265.34,93.928 261.485,94.904 257.607,94.904 252.787,92.96 
		251.813,95.876 253.744,99.768 253.744,102.688 257.607,106.575 254.726,109.5 252.787,108.524 246.019,110.467 239.259,95.876 
		232.492,90.037 231.518,88.092 232.492,86.152 234.415,81.285 231.518,78.369 213.161,78.369 210.256,76.421 209.291,73.506 
		210.256,70.585 217.024,69.622 217.991,66.698 217.991,64.758 215.085,63.778 211.23,65.722 206.395,63.778 202.539,62.814 
		196.737,63.778 192.866,63.778 193.825,61.835 194.798,59.891 191.9,58.919 186.091,59.891 189.004,55.994 188.031,54.058 
		182.252,55.027 178.373,55.994 172.571,54.058 166.769,54.058 164.83,55.994 164.83,56.966 169.682,57.939 171.613,59.891 	"/>
	<polygon id="Aitkin" fill="#B8D3CB" stroke="#000000" stroke-width="1.0082" points="174.503,337.089 173.537,297.212 
		99.123,297.212 99.123,358.481 94.287,358.481 94.287,416.843 134.878,416.843 134.878,429.489 175.477,429.489 175.477,389.604 	
		"/>
	<polygon id="Itasca" fill="#B8D3CB" stroke="#000000" stroke-width="1.0082" points="34.39,234.955 40.192,234.955 50.814,242.742 
		57.574,244.688 62.411,235.931 64.343,233.013 69.179,234.955 69.179,236.902 73.025,236.902 74,245.658 78.835,249.551 
		83.68,251.493 86.553,249.551 89.467,252.469 94.287,254.419 99.123,253.442 99.123,254.419 96.226,261.226 97.199,267.051 
		99.123,267.051 99.123,297.212 173.537,297.212 171.613,162.008 102.994,161.044 102.994,168.819 34.39,168.819 	"/>
	<polygon id="Koochiching" fill="#B8D3CB" stroke="#000000" stroke-width="1.0082" points="35.348,36.544 34.39,88.092 
		34.39,168.819 102.994,168.819 102.994,161.044 171.613,162.008 170.64,61.835 162.907,61.835 160.991,58.919 161.948,56.966 
		161.948,53.083 154.215,52.115 142.61,52.115 138.748,54.058 134.878,59.891 128.126,64.758 123.281,65.722 117.487,65.722 
		107.814,66.698 97.199,67.67 98.166,58.919 95.262,50.164 89.467,49.191 84.638,47.243 74,47.243 62.411,46.275 53.705,45.299 
		49.841,38.491 47.917,36.544 	"/>
</g>
<g id="nopointer-State-Line">
	<polyline fill="none" stroke="#000000" stroke-width="3" stroke-linejoin="round" points="252.787,426.635 252.787,352.651 
		257.607,352.651 261.485,354.591 266.306,347.783 265.75,346.195 269.219,341.945 273.422,337.711 274.79,337.363 	"/>
</g>
<g id="nopointer-water-strokes">
	<path fill="none" stroke="#44C8F5" stroke-width="0.2703" d="M18.439,39.393c1.919,0.319,3.679,0,5.598,0.479
		c1.6,0.16,2.238,0.312,3.677-0.328c0.161-0.16,1.28-0.312,1.601-0.473c2.239-1.598,4.638-0.319,7.037-0.639
		c0,0.48,0.479,0.799,0.64,0.96c0.959,0.479,2.08,0.319,3.039-0.161c2.399-1.28,6.292,0.64,7.411,3.198
		c0.32,1.121-0.282,2.56,0.198,3.679c0.48,0.959,1.348,0.959,2.307,1.28c2.559,0.798,5.117,0.16,7.676,0.798
		c3.04,0.641,6.078,0.321,9.117,0.641c0.959,0.159,1.919,0.319,2.719,0.799c2.335,1.401,5.598-0.32,8.316,0
		c0.16,0,0.48,0.32,0.64,0.32c3.837,0.96,8.157-0.344,11.834,0.775c0.32,0.161,1.258,1.004,1.579,1.644
		c0.32,0.479,1.222,1.128,1.381,1.447c0.641,1.6-0.283,4.13,0.197,5.729c0.961,2.399-0.225,4.431-0.065,6.83
		c0.799-0.319,0.268,1.167,1.067,1.167"/>
	<path fill="none" stroke="#44C8F5" stroke-width="0.2703" d="M78.288,76.156c0-0.16,0.16-0.32,0.32-0.32
		c3.358-0.48,6.397-0.321,9.595,0.16c0.481,0.16,1.28,0.8,1.759,1.28c0.32,0.319,1.12,0.319,1.28,0c0.64-0.641,1.6-0.641,2.079-1.44
		c0.64-0.8,0.32-1.6,0.479-2.56c0.161-0.32,0.8-0.479,0.96-0.798c0.159-0.96,0.159-1.919-0.16-2.719c-0.32-0.64-0.32-1.28-0.32-2.08
		l0.16-0.161c1.279,0.481,2.484-0.387,3.763-0.226c3.119,0,5.473,1.786,8.593,1.546c0.158,0,2.872,0.047,3.113-0.033
		c1.358-0.161,2.468,0.135,3.748-0.263c2.16-0.641,4.745-0.033,6.904-0.593c1.279-0.319,2.022-0.454,3.222-0.854
		c1.279-0.48,1.877-0.572,3.156-1.052c0.4-0.16,1.901-0.63,2.301-0.789c0.881-0.24,1.224-0.295,1.543-1.093
		c0.799-1.919,0.961-3.919,1.521-5.998c0-0.08,0.08-0.239,0.239-0.32c0.8-0.161,0.632-1.635,1.43-1.795
		c0.801-0.241,1.11-0.117,1.908-0.196c0.081-0.081,2.616,0.014,2.699-0.066c1.198-0.24,3.205-0.548,4.402-0.789"/>
	<path fill="none" stroke="#44C8F5" stroke-width="0.2703" d="M447.368,127.834l2.42-0.11h2.079l2.239,1.277l2.874,0.48l2.398-0.959
		l2.078-1.598l2.558-1.119l3.993,0.798l3.838,0.48l3.514,1.119l3.037,0.798l2.079,2.398l1.599,2.875c0,0.32-0.162,0.8,0,0.961
		c0.637,0.637,0.958,1.438,1.277,2.236c0.48,0.799,1.279,1.279,2.239,1.598c1.438,0.32,3.035-0.479,4.474,0.64
		c1.279,0.959,2.558,2.077,3.835,2.877c1.44,0.958,3.196,1.278,4.476,0.639c1.28-0.639,2.712-3.838,3.993-4.796
		c2.876-2.398,7.41-0.945,10.926-0.465c0.799,0.158,4.083,0.682,4.88,1.161c2.907,1.745,2.688-0.071,6.044-0.231
		c1.776,0.215,10.881,1.014,10.881,1.332"/>
	<path fill="none" stroke="#44C8F5" stroke-width="1.0811" d="M91.532,362.245c1.079-0.6,1.919-0.959,3.119-1.318
		c0.359,0,0.839-0.479,1.199-0.479c1.799-0.12,3.479-0.24,5.277-0.36c0.24,0.84-0.36,1.559-0.36,2.398c0.6-0.118,1.08,0.48,1.2,0.96
		c0.24,0.72,0.36,1.681-0.48,2.278"/>
	<path fill="none" stroke="#44C8F5" stroke-width="1.0811" d="M101.648,366.043c0.399,0.601,2.198-0.198,2.799,0.401
		c1.398,0.998,2.999,2,4,1.198c0.598-0.599-0.202-2.599,0.598-3.396c0.6-0.801,1.4-0.401,1.799-1.601c0.201,0,0.6,0,0.799,0
		c0.399-0.4,0-1.199,0.2-1.199c0.4-0.401,0.241-1.56,0.84-1.56c-0.4-1.998,0.16-2.839,0.761-4.838c0-0.198,1.199,0.2,1.598-0.198
		c1.399-1.399,1.399-3.4,1.8-5.398c0.199-0.999,1.599-1.399,2.798-1.998c0.202-0.201,0.4-0.401,0.601-0.6
		c0.799-0.401,1.798,0,2.598-0.401c1.399-0.8,3.201-0.6,4.6-1.399c0.996-0.599,1.596-1.199,2.796-1.798
		c0.202,0,0.602-0.401,0.799-0.602c0.402-0.199,0.965,0.109,1.4,0c1.598-0.4,2.8-1.598,3.199-3.397c0.2-1.6,2.798-0.399,3.596-1.198
		c0.6-0.401,0-0.682,0.202-1.68c0,0,0.397-1.32,0.599-1.32c0.2,0.199,0.64,0,0.64,0.199c0.598,0.2,0.361,0.2,0.759-0.199
		c0.801-1.6,1.599-3.999,3.601-3.598c0.396-1.399,0.396-3.199-1-3.798c0.399-4,0-7.998,0.399-11.996l-0.139-1.391
		c2.4-2,2.406-4.028,4.206-6.427c1.199-1.399,1-3.198,1.8-4.798c0.6-0.599,0.999-1.397,1.198-2.198
		c0.598-1.998,0.2-3.998-0.397-5.998c0-0.599-1.001-0.599-1.601-0.997c-1-0.402-2.401-0.202-3.397-0.801
		c-0.603-0.201-1.001-0.401-1.203-0.8c-0.198-0.8-0.599-1.399-0.996-2.2c-0.4-0.598-1.6,0-2.4-0.199
		c-1.599-0.999-1.599-2.798-2.199-4.398c-0.999-2.599,0-5.397-0.601-7.995c-0.198-0.6-0.798-1.4-0.999-2c-0.4-1,0-1.998,0-2.998
		c0-0.6-1.199-0.6-1.798-0.801c-0.202-0.198,0.399-0.799,0.2-1c-0.799-0.799-1.599-0.998-2.598-1.199
		c-0.8-0.199-1.799-0.599-2.199-0.998c-1.4-1.201-2.2-3.398-3.799-4.199c-1.399-0.8-3.399,0-5.197,0c0,0-6.989-2.576-9.59-1.016
		c-2.602,1.561-13.73,2.835-14.571,0.731s-0.982-3.786,0.561-6.17c1.542-2.384,1.963-6.589-0.281-6.729
		c-2.243-0.142-2.944,0.138-3.786-0.843s-1.121-1.541-3.225-1.541c-2.104,0-4.066,0.699-4.066,1.822
		c0,1.121-0.842,2.242-2.945-0.281s-2.103-4.207-5.187-5.328c-3.085-1.121-5.609-1.823-5.89-4.206s-1.682-11.218-4.627-12.339"/>
	<path fill="none" stroke="#44C8F5" stroke-width="1.0811" d="M47.529,235.523c0,0-4.346-1.403-6.029-2.244
		c-1.682-0.842-2.383-3.365-12.198-2.523"/>
</g>
<g id="nopointer-water-fills">
	<path fill="#C7EAFB" stroke="#44C8F5" stroke-width="0.2703" stroke-linejoin="round" d="M45.022,213.973
		c0.72,0,0.72,1.079,0.961,1.201c0.958,0.358,2.159,0,3.238,0.239c0,0,0,0.358,0,0.599c-0.959-0.24-1.919,0.72-1.319,1.319
		c0.959,1.081,2.758,0.72,4.078,1.439c0.12,0,0.36,0.239,0.479,0.239c3.119,1.2,6.478-0.119,9.597,0.961
		c0.479,0.239,1.08,0.6,0.839,1.438c1.32,0.24,2.759,0.722,3.479,1.801c0.24,0.36,0.36,1.08,0.839,1.439
		c1.44,0.959,3.359,0.959,4.319,2.518c0.36,0.84,0.36,1.68,0.121,2.52c0,0.121-0.361,0.239-0.361,0.239c-0.48,0.84,0,1.92-0.36,2.64
		c-0.239,0.602-1.319-0.12-1.559,0.24c-0.6,0.6-1.439,0.719-2.039,0.479c-1.2-0.479-1.2-2.158-1.919-3.118
		c-0.241-0.24-0.959-0.24-1.08,0c-0.6,0.841-1.56,1.2-1.919,2.159c0,0.24-0.12,0.48-0.12,0.721c-0.479,0.479-0.601,1.078-0.839,1.68
		c-0.84,1.559-0.48,3.237-1.081,4.797c-0.359,1.08-0.839,2.038-1.559,2.759c-0.241,0.36-0.96,0.479-1.44,0.72
		c-0.719,0.479-0.12,1.439-0.479,1.919s-0.48-0.239-0.839-0.479c-0.481-0.359-1.441,0.24-2.16-0.121
		c-0.48-0.119-0.36-1.079-0.72-1.198c-0.721-0.36-1.679,0-2.519-0.241c-0.12,0-0.12-0.48-0.24-0.48c-0.958,0-0.958-0.839-1.56-1.438
		c0,0-0.36-0.121-0.479-0.121c-1.2-0.959-2.28-1.559-3.12-2.758c0-0.12-0.119-0.48-0.119-0.6c-0.48-0.72-1.44-1.08-2.279-1.56
		c-0.36-0.12-0.24-0.72,0-1.08c0.479-0.72,0.959-1.319,0.839-2.278c0.241,0,0.6,0.119,0.721-0.12c0-0.12,0.12-0.36,0.12-0.479
		c0.479-0.36,0.959-0.84,1.44-1.08c0.359-0.24,0.958-0.12,1.079-0.358c0.24-0.361,0.48-0.72,0.72-1.08c0.6-1.199,0-2.521,0.36-3.72
		c0.48-1.318,0.719-2.637,0.96-4.078c0.119-0.479,1.079-1.078,0.719-1.678c-0.121-0.24-0.719-0.359-1.199-0.6
		c-0.36-0.121-0.96-0.361-1.32-0.841C46.342,216.972,45.143,215.771,45.022,213.973z"/>
	<path fill="#C7EAFB" stroke="#44C8F5" stroke-width="0.2703" stroke-linejoin="round" d="M280.397,108.702
		c-0.236,0.098-0.323,0.239-0.561,0.399c-0.641,0.32-0.799,1.2-1.441,1.679c-0.316,0.241-0.796,0.161-0.957-0.079
		c-0.162-0.161-0.162-0.641-0.083-0.96c0.16-0.239,0.321-0.479,0.561-0.719c0.32-0.4,0.24-0.959,0.08-1.439
		c0-0.082-0.398-0.241-0.641-0.161c0-0.639,0-1.359,0.16-1.999c0.083-0.64,0.083-1.36-0.077-2c0-0.239-0.404-0.239-0.404-0.4
		c-0.158-1.119-0.078-2.318,0-3.438c0.084-0.56,0.162-1.359,0.801-1.438c0.8-0.161,1.6-0.241,2.319,0
		c1.2,0.319,2.559,0.319,3.438,1.279c0.401,0.32,0.319,0.88,0.241,1.36c-0.08,0.079-0.16,0.24-0.241,0.32
		c-0.158,1.759-1.518,3.038-2.317,4.557c0.637,0,1.277,0,1.838-0.239c0.08,0.72-0.161,1.518-0.239,2.239
		c0,0.401-0.401,0.721-0.72,0.88C281.595,108.78,280.955,108.46,280.397,108.702z"/>
	<path fill="#C7EAFB" stroke="#44C8F5" stroke-width="0.2703" stroke-linejoin="round" d="M427.781,124.423
		c-0.634,0.995-1.497,2.032-2.302,2.436c-0.519,0.224-1.093,0.831-1.498,0.784c-0.287,0.678,1.656-0.573,2.077-0.288
		c0.143,0.096,0.254,0.685,0.137,0.707c-0.854,0.652-3.388,0.644-3.668,0.453c-0.257-0.073-0.68-0.588-0.505-0.996
		c-0.231,0.542-0.749,1.015-1.093,1.082c-0.865,0.291-3.26,0.871-3.08-0.079c0.089-0.119-0.703,0.235-1.251,0.442
		c-0.925,0.177-2.569,0.798-1.624-0.299c-1.316,0.354-1.835,1.251-2.039,1.888c-1.904,0.265-4.017,0.273-5.417-0.255
		c-0.526-0.198-0.498-0.9-0.279-1.441c0.157-0.03,0.473-0.091,0.629-0.12c0.119-0.222-0.092-0.481-0.148-0.769
		c3.157-0.505,10.198-3.529,12.216-3.291c0.405,0.047,0.922,0.073,1.386-0.017c0.057-0.135,0.111-0.271,0.228-0.292
		c0.577-0.11,1.269-0.492,0.867,0.457c1.155-0.22,2.248-0.304,3.573-0.931c0.979-0.562,2.245-1.303,2.708-0.893
		c0.29,0.318-0.387,0.794-0.726,1.248L427.781,124.423z"/>
	<path fill="#C7EAFB" stroke="#44C8F5" stroke-width="0.2703" stroke-linejoin="round" d="M471.684,126.445
		c2.735,0,5.115,1.599,7.672,2.397c0.48,2.399,2.878,3.676,5.435,3.676c0.799,0,1.116,1.278,0.639,1.599
		c-1.117,0.958-2.875,0.479-4.476,0.479c-0.478-1.598-1.759-2.557-2.557-4.154c-0.157-0.32-0.478-0.959-1.117-1.119
		c-0.8-0.161-1.44-0.161-2.239-0.321c-1.277-0.479-2.717-0.479-3.835-1.438c-0.16-0.16-0.16-0.799,0-1.119
		C471.206,126.445,471.524,126.445,471.684,126.445z"/>
	<path fill="#C7EAFB" stroke="#44C8F5" stroke-width="0.2703" stroke-linejoin="round" d="M202.289,59.168
		c0,0.24,5.741,1.241,5.741,1.241c2.639,1.918,4.876,1.901,7.752,3.101c2.4,0.72-6.395,1.61-3.995,2.331
		c0.237,0-0.242,0.479-0.242,0.959c-6.716-0.24-13.672-0.24-20.389-0.719c0,0,0-0.719,0-0.96c-0.719-0.239-1.68,0.241-2.399,0
		c0-0.239,0-0.72,0-0.958c0.239-0.48,0.959,0,1.199-0.241c0.481-0.719-0.239-1.199-0.959-1.438c-1.44,0-2.879-0.481-4.317,0.239
		c-0.24,0.48-0.72,1.44-0.959,0.96c-0.479-0.48,0-1.681-0.479-2.159c-0.482-0.239-1.203,0.239-1.682,0
		c-0.241-0.239-0.241-1.199,0-1.439c0.718-0.48,1.438-0.48,0.96-1.201c-0.72-0.478-1.92-0.719-2.879-0.958
		c1.918,0.48,3.838,0.958,5.757,0.239c0.241,0,0-1.439-0.958-1.68c0,0,0.014-0.48,0-0.719c0.019,0.302,2.343-0.164,2.343-0.785
		c0.041-0.397-2.343,0.545-2.823,0.785c-1.682,0.719-4.079-0.24-5.517,0.719c-0.717,0.48-1.44,1.199-1.92,1.44
		c-1.678,0.719-3.358,0.719-5.038,0.239c-1.44-0.239-2.64-0.96-4.078-1.2c-2.399-0.24-4.558-0.96-6.957-0.719
		c0-0.241,0-0.479,0-0.479c-5.997-0.721-11.667-0.702-17.665-0.702c1.679,0,2.573-0.878,4.011-1.118
		c1.919-0.719,4.539,0.86,6.456,0.14c0.959-0.239,1.682-0.719,2.399-0.719c6.958-0.719,17.197-2.827,24.153-2.107
		c1.706,0.177,2.64,1.086,4.032,1.706c2.325,0.931,5.427,2.016,7.288,3.876c1.552,1.241,5.099-0.421,6.65,0.818L202.289,59.168z
		 M158.291,53.606c-0.611-0.306-1.039,0.799-0.799,1.119c0.32,0.32,1.118,0.32,1.598,0c0.319-0.159,0.399-0.719,0.16-0.959
		C159.089,53.526,158.609,53.766,158.291,53.606z M169.486,53.125c-1.359-0.08-2.641,0.24-4,0.32c-0.158,0-0.638,0.239-0.318,0.48
		c0.318,0.159,0.64,0,0.96,0.08c0.079,0.079-0.161,0.32-0.081,0.399c1.118,0.32,2.32,0.081,3.439-0.24
		c0.24-0.08,0.396-0.48,0.24-0.559L169.486,53.125z M190.755,63.122c0.16,0.319-0.078,0.639,0,0.878
		c0.081,0.161,0.321,0.24,0.321,0.32c0.08,0.8,0.878,1.2,1.6,0.959c0.239-0.08,0.08-0.399,0-0.64
		c-0.162-0.399-0.401-0.72-0.721-1.119C191.715,63.202,191.156,62.882,190.755,63.122z"/>
	<path fill="#C7EAFB" stroke="#44C8F5" stroke-width="0.2703" stroke-linejoin="round" d="M113.308,397.177
		c-1.121,0-2.244,0-3.206,0.479c-0.642,0.321-0.96,1.122-1.602,1.443c-1.923,0.8-3.847,1.763-5.93,2.402
		c-1.763,0.642-3.365,2.244-3.845,4.167c-0.481,1.604-0.641,3.367-0.162,5.128c0,0.642,0.642,1.122,0.802,1.763
		c0.32,0.963,0.161,2.084,0.801,2.886c0.962,1.122,0.321,2.403,1.282,3.525c0.481,0.641,2.083-0.16,2.405,0.641
		c0.318,0.642,0.318,1.604,0.96,2.404c1.282,1.122,0.32,3.205,1.282,4.648c0.801,1.441,2.404,1.923,4.167,2.403
		c0.32,0,0.481,0.962,0.961,1.281c0.161,0,0.482,0,0.643,0c0.959,0.802,1.921,1.764,3.044,2.244c1.602,0.802,3.203,0.962,4.968,0.48
		c0.321,0,0.642-0.961,0.642-0.961c1.762-0.641,3.524-1.764,5.448-1.603c-0.161,1.603,2.082,1.603,3.207,1.762
		c0-0.64-0.163-1.28,0.158-1.762c0.16-0.161,0.643-0.161,0.962-0.161c0.482-0.319,0-1.121,0.161-1.121
		c0.962-0.481,2.403,0.321,3.044-0.481c0.801-0.802,0.641-2.243,0.319-3.525c0-0.319-0.479-0.642-0.479-0.802
		c-0.32-2.082-0.8-4.166-2.243-5.608c-0.481-0.48-1.921,0-2.244-0.641c-0.641-1.603,0-3.526-0.32-5.449c0,0-0.321-0.32-0.321-0.48
		c0-4.166-0.162-8.174-0.162-12.341c-1.281-0.8-1.921-2.083-2.883-3.205c-0.321-0.321-0.802-0.321-1.122-0.321
		c-3.205-0.48-6.571-0.319-9.776,0.161C113.95,396.534,113.789,397.177,113.308,397.177z"/>
	<path display="none" fill-rule="evenodd" clip-rule="evenodd" fill="#004685" d="M1002.154,384.229
		c-3.942-7.779-2.617-23.145-17.175-12.61c-14.526,10.571-14.227,9.199-22.274,1.72c-8.031-7.447-8.529,7.852-25.638,1.088
		c-17.12-6.764-14.058-20.919-10.427-32.883c3.645-11.946-9.414-9.14-25.106-2.55c-15.673,6.585-52.657,16.637-67.355,14.172
		c-14.722-2.463-41.307,25.409-49.175,33.095c-7.869,7.683-21.751,5.197-34.558-4.61c-12.776-9.806-5.985-2.245-24.878,0.143
		c-18.908,2.329-5.721,1.312-22.799-21.172c-17.093-22.487-12.166-17.924-25.291-26.358c-13.076-8.404-31.395-14.62-39.488-6.365
		c-8.068,8.274,11.119-16.039-1.449-7.242c-12.529,8.756-17.053,20.336-22.545,24.357c-5.5,4.021,3.962-34.884,12.066-48.102
		c8.105-13.18,27.636-29.061,29.779-33.297c2.19-4.184,21.876-1.689,21.495-11.979c-0.368-10.293-25.347-11.052-38.221-6.008
		c-12.89,5.01-55.04,45.093-64.884,52.16c-9.823,7.044-30.4,41.408-54.876,41.519c-24.471,0.069-30.796-1.222-40.709,15.716
		c-9.902,16.938-34.578,14.33-44.953,19.641c-10.396,5.289-17.755-1.951-25.717-9.322c-7.957-7.412-14.378,6.088-18.821,7.815
		c-4.429,1.667-1.207-15.644,3.066-24.949c4.264-9.302,17.631-13.499,10.235-23.245c-7.398-9.791-25.956,7.813-33.22,10.648
		c-7.238,2.793-22.734,11.659-34.603,13.879c-11.885,2.264-10.971,8.48-27.253,7.045c-16.31-1.43-20.514-1.975-25.465-12.604
		c-4.973-10.629-4.973-10.629-4.973-10.629l0,0c0,0,45.133-33.572,54.528-46.436c9.381-12.822,42.004-47.229,48.732-51.364
		c6.729-4.119,51.276-39.901,75.791-39.517c24.519,0.322,74.295-48.418,77.78-67.545c3.506-19.131-0.756-35.527,20.763-41.695
		c21.529-6.13,19.285,2.544,19.285,2.544s-11.567,25.349-8.214,28.055c6.628,5.321,26.007-35.596,26.007-35.596l10.293-33.137
		c0,0,2.475-5.57,11.9-1.789c9.424,3.759,9.217,11.823,9.217,11.823l-12.895,26.616l14.871-6.524l9.236-9.272l1.055-13.11
		l-18.152-25.525l6.57-11.717l19.926,0.241c0,0,34.9,22.001,57.559,25.212c22.653,3.173,30.863,2.106,54.088,1.658
		c23.195-0.444,36.548,11.078,42.895,23.635c6.363,12.497,23.773,60.6,31.995,75.681c8.224,15.082,23.487,30.094,59.653,14.69
		c36.169-15.344,32.307-11.468,45.858-2.629c13.544,8.84-3.367,31.693-4.784,45.722c-1.377,14.062,11.803,23.82,19.515,32.18
		c7.696,8.401,20.88,17.725,5.259,52.141c-15.607,34.459,6.892,8.447,17.064,11.297c10.176,2.773,19.524,11.029,16.09,25.703
		c-3.439,14.602-12.785,0.988-12.785,0.988l-2.709,7.82c0,0,3.052-3.379,8.428,1.602c5.346,4.965-3.895,14.221-3.895,14.221
		s-10.691,17.451-1.135,17.602c9.562,0.153,16.405-8.006,22.07-9.789"/>
	<path fill="#C7EAFB" stroke="#44C8F5" stroke-width="0.2703" stroke-linejoin="round" d="M269.219,341.945
		c0,0-4.219,0.93-4.094,2.18s1.045,3.934,2.046,2S270.813,343.516,269.219,341.945z"/>
</g>
<g id="nopointer-roads">
	<g id="_x34_8._Water_patching_1_">
	</g>
	<polyline fill="none" stroke="#808285" stroke-width="1.6217" points="39.68,167.58 37.44,166.461 35.841,166.461 34.082,166.461 
		32.003,165.34 29.765,165.021 	"/>
	<line fill="none" stroke="#808285" stroke-width="1.6217" x1="192.475" y1="167.164" x2="207.83" y2="167.074"/>
	<path fill="none" stroke="#808285" stroke-width="1.6217" d="M226.808,208.696l4.2-3.3l2.547-0.449l2.102-1.5
		c0,0,1.346-0.449,1.796-1.35c0.451-0.898,1.051-3.148,1.051-3.148l0.299-2.398l3.298-12.444l1.501-2.548l0.298-1.951l-0.298-1.198
		l-2.55-0.149l-3.599,1.348l-2.491,0.385l-4.186-0.117l-2.587,0.102l-1.73-0.467l-1.599-0.801l-2.397-0.6l-2.201,0.199l-1.599,0.8
		l-4.151,1.599"/>
	<polyline fill="none" stroke="#808285" stroke-width="1.6217" points="268.49,168.514 266.691,169.113 263.541,171.514 
		260.696,173.162 257.695,173.91 255.595,174.511 253.346,175.41 250.797,176.76 248.698,177.06 247.349,176.909 245.7,177.359 
		243.603,178.409 	"/>
	<polyline fill="none" stroke="#808285" stroke-width="1.6217" points="98.638,246.518 90.522,242.44 82.046,237.482 
		75.489,232.525 73.09,226.607 71.49,220.529 70.85,215.892 63.334,206.457 63.334,202.618 61.895,201.498 55.498,195.582 
		49.102,187.105 48.461,184.387 48.461,176.869 48.622,172.871 48.622,170.152 46.382,164.395 100.278,164.395 100.417,165.1 
		100.417,171.062 134.001,171.062 135.352,171.662 136.4,173.461 137.299,175.111 138.049,175.561 144.646,175.561 145.545,175.859 
		146.596,176.61 150.044,176.459 151.693,175.561 154.842,175.561 154.842,173.461 166.539,173.461 166.539,170.648 
		166.539,169.413 168.787,169.413 168.787,166.715 181.83,166.715 181.83,168.813 184.08,168.813 184.08,166.715 192.323,166.715 	
		"/>
	<polyline fill="none" stroke="#808285" stroke-width="1.6217" points="196.911,156.52 192.594,162.756 192.594,171.872 
		192.594,217.971 192.6,219.367 192.83,221.46 192.363,223.09 190.42,223.773 	"/>
	<polyline fill="none" stroke="#808285" stroke-width="1.6217" points="161.649,57.324 157.331,56.964 155.29,56.125 
		151.933,56.604 148.094,56.365 144.017,56.125 141.737,56.724 138.261,57.445 	"/>
	<path fill="none" stroke="#808285" stroke-width="1.6217" d="M120.749,69.199l-2.279,0.6l-1.799,0.36h-2.879l-2.999-0.201h-2.24
		l-3.838-0.159l-2.559-0.48l-1.759-0.48l-1.12-0.24H93.76l-1.438-0.959l-0.48-1.438V54.445l-1.92-1.919l-2.158-0.959H63.535
		l-3.838-0.959l-2.159-0.959l-3.359-0.481l-2.639-0.24H48.9l-2.877-1.68V45.57v-1.68l-0.719-1.919l-1.44-0.96l-13.914-0.719
		c0,0-2.399,1.679-3.119,1.679s-2.398-0.96-2.398-0.96l-3.358-0.238"/>
	<line fill="none" stroke="#808285" stroke-width="1.6217" x1="315.539" y1="291.828" x2="315.354" y2="292.802"/>
	<path fill="none" stroke="#808285" stroke-width="1.6217" d="M267.518,168.516l3.12,0.208l1.919-1.2l2.161-0.24l1.677-0.479
		l3.601-3.358l4.558-0.238l3.596-0.961l5.037-1.68l3.12-1.199h1.199l0.958,1.679v7.678l0.721,1.919l3.119,1.439l1.2,1.199
		l1.68-0.479l3.117,0.479l7.437,6.957l1.439,0.48l1.44,2.158l0.238,2.639l0.242,3.358l-0.242,2.399c0,0,0.722,0.959,1.2,1.68
		c0.48,0.719,1.68,1.918,1.68,1.918l0.48,2.16l5.037,1.678l3.119-0.24l2.159,0.961l3.117-1.439l5.04,0.24l0.72,1.678l0.718,2.4
		l6.478,0.479l0.72,2.16v8.636l2.16,4.317l0.721,8.877l1.678,1.439l5.757,5.518v2.878v1.92l5.278,4.077"/>
	<polyline fill="none" stroke="#808285" stroke-width="1.6217" points="102.75,371.134 101.121,372.182 99.144,373.285 
		96.287,375.409 92.929,377.568 	"/>
	<path fill="none" stroke="#808285" stroke-width="1.6217" d="M109.201,369.529c-1.678,0.479-5.347,0.964-5.347,0.964l-4.493,2.767"
		/>
	<polyline fill="none" stroke="#808285" stroke-width="1.6217" points="117.24,358.197 137.932,358.197 147.827,357.448 
		151.574,357.448 168.517,352.501 174.814,351.601 180.811,348.303 192.956,348.303 193.93,348.303 195.504,348.303 
		196.855,347.253 202.25,347.253 204.351,347.104 206.448,346.953 208.249,347.852 210.647,348.603 213.044,348.453 
		215.444,348.003 217.992,348.303 219.643,348.603 234.938,348.603 235.648,349.289 	"/>
	<line fill="none" stroke="#808285" stroke-width="1.6217" x1="228.603" y1="225.418" x2="226.628" y2="207.785"/>
	<polygon fill="none" stroke="#808285" stroke-width="0.8108" points="115.679,258.033 100.173,246.68 98.31,246.319 99.511,247.4 
		115.083,258.842 116.882,259.361 	"/>
	<path fill="none" stroke="#808285" stroke-width="0.8108" d="M190.548,223.133l-1.388,2.434c-0.095,0.191-0.136,0.463-0.136,0.778
		c0,1.507,0.903,4.053,1.042,4.433c-0.059,0.172-0.437,0.765-2.761,2.482l-0.161,0.122c-0.385,0.287-0.461,0.886-0.461,1.804
		c0,0.21,0.003,0.439,0.008,0.684c0.004,0.188,0.008,0.412,0.008,0.626c0,0.312-0.014,0.585-0.05,0.72
		c-0.533,0.226-2.979,0.378-4.324,0.463l-1.149,0.075c-1.427,0.103-3.222,0.574-4.532,0.919l-1.23,0.311
		c-0.93,0.207-6.842,0.064-9.068,0.011l-1.118-0.022c-1.07,0-4.232,3.592-4.76,4.436c-0.68,1.088-2.515,4.625-2.593,4.775"/>
	<path fill="none" stroke="#808285" stroke-width="0.8108" d="M158.767,248.646c0.019-0.038,1.896-3.653,2.552-4.706
		c0.694-1.107,3.368-3.795,3.947-3.964c0.065,0.001,1.06,0.022,1.06,0.022c4.083,0.1,8.383,0.171,9.307-0.035l1.266-0.318
		c1.273-0.334,3.014-0.795,4.35-0.889l1.137-0.074c3.349-0.209,4.609-0.352,5.009-0.75c0.255-0.257,0.312-0.693,0.312-1.43
		c0-0.196-0.005-0.414-0.012-0.655c-0.004-0.188-0.006-0.421-0.006-0.653c0-0.445,0.018-0.887,0.096-1.037
		c0.045-0.031,0.119-0.088,0.119-0.088c2.267-1.677,3.179-2.605,3.179-3.301c0-0.098-0.019-0.195-0.056-0.287
		c-0.396-0.988-1.01-3.26-1.01-4.158c0-0.137,0.014-0.242,0.047-0.307l1.198-2.133"/>
	<path fill="none" stroke="#808285" stroke-width="0.8108" d="M192.103,223.332c1.221,0.795,2.716,2.207,3.066,2.229
		c0.246,0,0.792-0.107,1.272-0.201c1.051-0.209,1.544-0.287,1.862-0.18c0.294,0.082,2.027-0.012,2.723-0.151
		c0.258-0.053,1.351-0.558,2.225-0.962c1.254-0.581,2.548-1.181,3.171-1.336c0.571-0.145,1.399-0.214,2.193-0.281
		c0.766-0.066,1.556-0.131,1.991-0.257c0.967-0.276,2.437-1.056,3.003-1.733c0.338-0.407,2.105-2.438,3.715-2.617
		c0.462-0.051,1.358-0.032,2.394-0.01c1.222,0.026,3.456,0.072,3.923-0.119c0.307-0.575,1.477-4.264,2.656-8.12l0.582-1.104"/>
	<path fill="none" stroke="#808285" stroke-width="0.8108" d="M191.142,224.094c0.853,0.555,3.279,2.473,4.023,2.473
		c0.347,0,0.892-0.107,1.471-0.223c0.446-0.087,1.191-0.234,1.374-0.203l-0.021-0.007c0.589,0.194,2.673-0.011,3.237-0.12
		c0.355-0.072,1.163-0.441,2.453-1.037c1.151-0.533,2.458-1.139,2.987-1.271c0.494-0.124,1.279-0.19,2.035-0.255
		c0.852-0.072,1.651-0.142,2.181-0.293c0.943-0.27,2.709-1.109,3.5-2.058c0.878-1.054,2.165-2.161,3.057-2.261
		c0.396-0.043,1.299-0.023,2.258-0.002c3.283,0.07,4.363,0.015,4.726-0.466c0.411-0.552,1.967-5.938,2.749-8.488l-0.408-1.512"/>
	<path fill="none" stroke="#808285" stroke-width="0.8108" d="M270.784,328.855c-0.103-0.095-5.703-5.134-6.692-5.7
		c-1.008-0.575-3.622-1.397-5.128-1.809c-1.212-0.331-5.468-2.822-7.067-3.76l-0.675-0.391c-0.666-0.381-2.877-2.688-4.065-3.925
		l-0.974-1.006c-0.92-0.921-2.201-1.833-3.137-2.501l-0.179-0.127c-0.87-0.623-4.506-3.831-5.729-5.328
		c-0.93-1.137-1.98-4.75-2.327-6.114c0-0.126-0.132-25.334-0.132-25.334s-1.436-5.225-1.483-5.395
		c0.064-0.725,0.533-5.872,0.535-5.908c0.062-4.123,0.209-8.781,0.363-9.291l-0.041,0.082c0.21-0.318,0.247-0.721,0.289-1.145
		c0.032-0.331,0.065-0.674,0.174-1.008c0.128-0.373,0.176-0.875,0.176-1.408c0-0.906-0.144-1.906-0.3-2.53
		c-0.247-0.985-3.692-5.419-4.828-6.3c-0.083-0.332-0.19-1.564-0.19-5.814c0-0.904,0.004-1.945,0.017-3.14l0.005-0.608
		c0-0.828-0.141-4.975-0.267-5.768l-0.658-1.316l-0.365,1.455c0.17,3.082,0.283,5.429,0.283,5.629l-0.004,0.599
		c-0.008,1.302-0.016,2.429-0.016,3.403c0,5.854,0.209,6.205,0.579,6.344c0.629,0.457,4.257,4.906,4.469,5.761
		c0.162,0.646,0.268,1.543,0.268,2.29c0,0.443-0.034,0.831-0.121,1.086c-0.147,0.442-0.19,0.881-0.223,1.232
		c-0.026,0.268-0.054,0.572-0.123,0.68c-0.101,0.145-0.355,0.529-0.49,9.716l-0.549,6.051c0,0,1.461,5.316,1.494,5.441
		c0.003,0.133,0.136,25.325,0.136,25.325l0.016,0.058c0.05,0.205,1.259,5.007,2.537,6.564c1.292,1.582,4.996,4.848,5.923,5.509
		l0.175,0.127c0.908,0.647,2.149,1.532,3.011,2.394l0.96,0.99c1.845,1.924,3.562,3.685,4.292,4.104l0.665,0.385
		c2.953,1.729,6.131,3.54,7.31,3.861c1.509,0.412,4.023,1.215,4.893,1.712c0.738,0.421,5.835,4.929,6.501,5.56"/>
	<polyline fill="none" stroke="#808285" stroke-width="1.6217" points="138.261,57.445 135.861,57.683 134.303,57.804 
		133.461,64.64 132.264,65.001 130.224,66.44 128.306,66.919 127.346,67.4 125.307,67.879 124.106,68.479 122.068,68.839 
		120.749,69.199 120.508,70.758 120.149,71.598 120.149,76.875 120.627,80.233 122.068,85.991 119.189,88.87 112.471,92.229 
		108.153,95.586 105.274,99.425 104.316,105.183 103.996,107.221 101.518,108.82 98.079,111.299 	"/>
	<path fill="none" stroke="#808285" stroke-width="1.6217" d="M158.17,84.912l-1.079-0.839l-1.441-0.48l-1.199-0.48l-8.156-8.156
		l-1.319-1.198c0,0-1.8-0.241-2.52-0.721c-0.72-0.479-1.081-0.839-1.081-0.839l-0.837-0.839v-7.077l-0.511-0.09l-0.869-0.87
		c0,0,0-1.139,0-1.619c0-0.479-0.898-0.9-0.898-0.9l-0.329-3.029l-4.031-6.513"/>
	<polyline fill="none" stroke="#808285" stroke-width="1.6217" points="67.292,140.807 45.742,164.076 42.544,166.314 
		40.145,167.114 38.865,170.793 37.106,171.752 35.987,174.15 30.709,178.309 	"/>
	<line fill="none" stroke="#808285" stroke-width="1.6217" x1="67.292" y1="140.807" x2="98.079" y2="111.299"/>
	<polyline fill="none" stroke="#808285" stroke-width="1.6217" points="157.572,85.032 163.808,85.032 170.044,85.511 
		173.884,84.551 177.725,87.431 182.039,92.229 182.039,104.223 184.919,108.062 185.878,111.9 189.236,115.257 192.594,122.934 
		195.474,129.651 196.911,135.408 196.911,156.52 	"/>
	<polyline fill="none" stroke="#808285" stroke-width="1.6217" points="196.911,156.52 202.189,161.797 206.511,166.114 
		210.919,168.805 211.367,169.413 212.418,170.912 212.715,173.312 212.715,175.111 213.314,176.459 214.065,178.709 
		214.514,180.658 215.414,182.158 215.414,188.903 215.714,191.902 214.966,194.752 218.712,198.199 220.662,198.65 
		224.411,200.898 226.808,208.696 	"/>
	<polyline fill="none" stroke="#808285" stroke-width="1.6217" points="117.773,315.362 116.761,313.647 116.761,310.649 
		117.659,308.999 117.659,306.602 117.362,303.604 117.659,301.054 117.81,298.504 119.31,289.96 119.609,287.261 120.358,284.411 
		120.358,282.161 121.257,279.763 122.158,277.664 125.757,266.568 125.608,262.971 129.443,264.844 132.35,266.589 
		138.515,270.078 146.424,276.244 159.565,284.035 163.403,287.525 165.033,289.387 170.15,293.807 175.268,299.621 
		178.872,303.925 182.129,307.763 188.994,310.787 	"/>
	<polyline fill="none" stroke="#808285" stroke-width="1.6217" points="192.72,314.838 196.703,319.665 198.354,320.865 
		200.454,321.314 216.945,321.314 223.54,321.314 225.34,321.614 227.439,322.065 230.887,322.065 255.929,322.065 258.293,322.065 
		258.964,321.347 	"/>
	<path fill="none" stroke="#808285" stroke-width="1.6217" d="M312.136,294.385"/>
	<line fill="none" stroke="#808285" stroke-width="1.6217" x1="188.276" y1="309.749" x2="192.72" y2="314.838"/>
	<polyline fill="none" stroke="#808285" stroke-width="1.6217" points="117.587,314.838 117.704,316.129 117.689,333.31 
		118.59,336.757 117.24,358.197 	"/>
	<polyline fill="none" stroke="#808285" stroke-width="1.6217" points="117.23,358.296 117.23,360.543 117.23,362.193 
		115.582,364.143 111.234,369.39 107.935,369.239 	"/>
	<polyline fill="none" stroke="#808285" stroke-width="1.6217" points="21.113,241.32 32.309,241.32 61.576,246.277 79.167,247.719 
		85.724,248.519 87.003,247.237 89.082,246.277 98.638,246.518 	"/>
	<polyline fill="none" stroke="#808285" stroke-width="1.6217" points="125.658,262.247 133.834,257.085 136.631,254.688 
		140.229,252.488 143.828,250.889 147.028,251.089 149.625,250.289 154.025,248.689 156.021,248.289 157.823,248.289 	"/>
	<path fill="none" stroke="#808285" stroke-width="1.6217" d="M116.079,258.922l8.397,4.049c0.131,0,0.882,0.148,0.882,0.148"/>
	<path fill="none" stroke="#808285" stroke-width="1.6217" d="M382.492,224.194l-4.381,3.782l-3.838,4.318l-1.199,1.919
		l-3.598,2.398l-2.881,3.839l-1.678,2.158l-0.958,1.68l-2.642,3.119l-4.315,5.277l-4.561,5.276l-5.276,6.238l-6.716,6.237
		l-1.921,1.68l-1.2,2.399l-2.397,2.157l-3.36,2.88l-3.838,3.117l-4.315,4.799l-2.161,2.64l-5.625,2.946l-1.083-0.933l-2.83,1.346
		c-1.004,0.459-3.448,3.029-3.448,3.029c-0.718,0.755-1.395,1.467-1.944,1.916c-1.487,1.217-15.057,14.059-15.675,14.634
		l-0.214,0.354l-2.208,3.374c0,0-0.579,0.406-1.522,1.065c-3.603,2.52-12.527,8.741-14.794,10.185
		c-2.864,1.821-8.741,8.832-8.741,8.832l-3.999-2.801l-1.798-1.598l-3-2.198l-5.797-1.601l-3-2.599l-2.397-2.599l-1.4-1.199"/>
	<polyline fill="none" stroke="#808285" stroke-width="1.6217" points="450.988,179.945 444.036,181.422 439,183.58 
		432.769,185.977 427.016,190.053 419.823,194.368 412.394,198.443 404.959,203.717 397.771,209.711 392.972,214.266 
		387.701,218.34 383.389,223.375 382.184,224.672 	"/>
	<path fill="none" stroke="#808285" stroke-width="1.6217" d="M450.988,179.945c1.199-0.24,5.514-2.438,5.514-2.438l4.317-1.919
		l3.835-1.438c0,0,3.115-1.438,4.552-1.918c1.44-0.479,2.878-0.959,2.878-0.959l8.391-3.836l5.515-1.197l2.395-0.48l4.078-4.074
		c0,0,2.876-1.439,3.594-1.678c0.72-0.24,3.116-1.199,3.116-1.199l4.795-1.68l3.596-2.875l3.116-2.637l4.316-3.596l0.718-2.879
		l1.527-0.901l3.954-2.093l12.038-4.199l0.312-2.946l2.636-1.396l2.015-3.101"/>
	<path fill="none" stroke="#808285" stroke-width="0.8108" d="M262.965,336.441l-3.375,3.825l-0.7,0.306
		c-1.271,0.556-3.917,1.708-4.541,1.917l-0.844,0.294c-1.053,0.368-2.642,0.928-3.497,1.124c-1.064,0.248-3.134,0.346-3.82,0.346
		c-0.64,0-3.909,0.18-5.043,0.462c-1.09,0.272-2.133,0.896-2.698,1.35c-0.289,0.229-1.455,0.976-2.227,1.47l-0.87,0.562
		c-0.344,0.229-1.742,1.696-4.548,4.692l-1.882,1.991c-0.89,0.891-4.486,7.035-4.767,7.784c-0.207,0.543-3.571,6.547-5.005,9.111
		l-0.872,1.56c-0.864,1.558-3.495,5.069-4.435,6.289l-1.92,2.492l-4.705,6.104c-0.55,0.734-2.889,4.889-2.99,5.065"/>
	<path fill="none" stroke="#808285" stroke-width="0.8108" d="M205.125,393.641c0.684-1.214,2.476-4.357,2.896-4.917l4.692-6.092
		l1.926-2.493c0.032-0.044,3.436-4.473,4.514-6.416l0.871-1.556c2.338-4.178,4.853-8.682,5.066-9.25
		c0.251-0.665,3.812-6.699,4.54-7.427l1.903-2.015c1.509-1.607,4.025-4.299,4.373-4.544l0.856-0.551
		c1.084-0.694,2.004-1.289,2.31-1.532c0.391-0.314,1.32-0.91,2.317-1.158c0.992-0.248,4.157-0.433,4.799-0.433
		c0.651,0,2.823-0.089,4.049-0.37c0.908-0.21,2.529-0.78,3.601-1.156l0.829-0.29c0.67-0.222,3.245-1.346,4.624-1.948l0.696-0.304
		l3.381-3.826"/>
	<path fill="none" stroke="#808285" stroke-width="1.625" d="M102.33,400.701c0.722-0.24,3.607-2.164,3.607-2.164l4.566-1.682
		l5.049-1.443l5.048-0.239l3.364,0.72l3.606,2.166l1.922,1.922v10.577l-0.481,1.924l1.443,2.884l1.442,2.163l1.442,2.645
		l0.479,2.644l0.964,2.886l0.48,2.644"/>
	<path fill="none" stroke="#808285" stroke-width="1.625" d="M108.076,369.239l3.306,2.104h10.968l3.004,2.705l4.382,8.626
		c0,0,0,4.566,0,5.288c0,0.721-0.243,12.019-0.243,12.019"/>
	<path fill="none" stroke="#808285" stroke-width="1.625" d="M108.708,369.505l1.353,5.688l-0.96,2.644v3.366l-1.034,3.066
		l-1.89,1.289c0,0-0.481,8.413-0.721,9.135c-0.241,0.72-1.777,4.784-2.498,5.505l-0.628,0.504c-0.72,0.241-2.884,2.163-2.884,2.163
		l-2.607,4.093l0.248,0.226l0.241,2.644l0.24,3.364l0.721,1.924l0.961,1.202l0.722,1.442"/>
</g>
<g id="nopointer-int-road-symb">
	<g>
		<g>
			<g>
				
					<linearGradient id="SVGID_2_" gradientUnits="userSpaceOnUse" x1="-445.4658" y1="-1052.0166" x2="-445.4658" y2="-1077.3389" gradientTransform="matrix(0.9025 0 0 0.9025 628.6985 1321.4512)">
					<stop  offset="0.6292" style="stop-color:#0092C8"/>
					<stop  offset="0.6314" style="stop-color:#0091C7"/>
					<stop  offset="0.6322" style="stop-color:#008DC2"/>
					<stop  offset="0.6328" style="stop-color:#0087B9"/>
					<stop  offset="0.6332" style="stop-color:#007EAD"/>
					<stop  offset="0.6336" style="stop-color:#00729D"/>
					<stop  offset="0.6339" style="stop-color:#00638A"/>
					<stop  offset="0.6343" style="stop-color:#005273"/>
					<stop  offset="0.6345" style="stop-color:#003A55"/>
					<stop  offset="0.6348" style="stop-color:#000E18"/>
					<stop  offset="0.6348" style="stop-color:#000000"/>
				</linearGradient>
				<path fill="url(#SVGID_2_)" d="M221.427,364.941c-1.41-1.646-2.293-3.631-2.293-5.929c0-2.2,1.121-4.641,2.304-5.856
					c0.887,0.552,1.758,0.862,2.626,0.862c0.87,0,1.754-0.311,2.611-0.862c0.867,0.552,1.735,0.862,2.604,0.862
					c0.867,0,1.737-0.311,2.594-0.862c1.196,1.216,2.321,3.656,2.321,5.857c0,2.297-0.898,4.282-2.278,5.928
					c-1.286,1.532-3.835,2.993-5.242,2.993C225.249,367.935,222.699,366.474,221.427,364.941z"/>
			</g>
		</g>
		<text transform="matrix(1 0 0 1 222.666 364.1016)" fill="#FFFFFF" font-family="'Helvetica-Bold'" font-size="7.0235">35</text>
	</g>
</g>
<g id="nopointer-fed-road-symb">
	<g>
		<path fill="#FFFFFF" stroke="#000000" stroke-width="0.7298" d="M151.911,241.212c0.764,0.802,1.482,1.316,2.138,1.316
			c0.705,0,1.763-0.515,2.112-1.316c0.358,0.802,1.447,1.316,2.15,1.316c0.654,0,1.372-0.515,2.12-1.316l2.569,2.35
			c-0.384,0.163-0.912,1.142-0.924,1.905c0,0.855,1.317,2.008,1.317,4.193c0,2.937-2.054,5.261-3.597,5.261
			c-0.695,0-1.079-0.123-1.389-0.262c-0.321-0.121-0.569-0.258-0.788-0.258c-0.421,0-1.017,0.461-1.458,0.982
			c-0.429-0.521-1.016-0.982-1.433-0.982c-0.221,0-0.467,0.137-0.79,0.258c-0.312,0.139-0.709,0.262-1.383,0.262
			c-1.552,0-3.599-2.324-3.599-5.261c0-2.186,1.316-3.338,1.316-4.193c0-0.764-0.532-1.742-0.915-1.905L151.911,241.212z"/>
		<g>
			<text transform="matrix(1 0 0 1 150.2568 250.6416)" font-family="'Helvetica-Bold'" font-size="7.0235">169</text>
		</g>
	</g>
	<g>
		<path fill="#FFFFFF" stroke="#000000" stroke-width="0.7298" d="M60.163,137.178c0.762,0.801,1.479,1.315,2.133,1.315
			c0.707,0,1.765-0.514,2.121-1.315c0.351,0.801,1.438,1.315,2.146,1.315c0.651,0,1.374-0.514,2.119-1.315l2.568,2.349
			c-0.382,0.164-0.911,1.139-0.924,1.901c0,0.854,1.317,2.012,1.317,4.199c0,2.933-2.051,5.255-3.601,5.255
			c-0.695,0-1.073-0.121-1.386-0.257c-0.326-0.122-0.57-0.259-0.786-0.259c-0.423,0-1.022,0.46-1.454,0.979
			c-0.436-0.518-1.021-0.979-1.443-0.979c-0.216,0-0.461,0.137-0.786,0.259c-0.314,0.136-0.706,0.257-1.385,0.257
			c-1.547,0-3.6-2.322-3.6-5.255c0-2.187,1.317-3.345,1.317-4.199c0-0.762-0.53-1.737-0.909-1.901L60.163,137.178z"/>
		<g>
			<text transform="matrix(1 0 0 1 60.458 146.6074)" font-family="'Helvetica-Bold'" font-size="7.0235">71</text>
		</g>
	</g>
	<g>
		<path fill="#FFFFFF" stroke="#000000" stroke-width="0.7298" d="M116.61,77.125c0.762,0.801,1.48,1.318,2.131,1.318
			c0.707,0,1.767-0.517,2.121-1.318c0.352,0.801,1.441,1.318,2.146,1.318c0.65,0,1.373-0.517,2.12-1.318l2.569,2.351
			c-0.384,0.162-0.912,1.141-0.927,1.9c0,0.856,1.316,2.013,1.316,4.198c0,2.935-2.047,5.258-3.598,5.258
			c-0.694,0-1.073-0.124-1.387-0.26c-0.323-0.121-0.567-0.255-0.783-0.255c-0.425,0-1.023,0.457-1.457,0.976
			c-0.437-0.519-1.02-0.976-1.44-0.976c-0.216,0-0.461,0.134-0.789,0.255c-0.312,0.136-0.704,0.26-1.385,0.26
			c-1.546,0-3.6-2.323-3.6-5.258c0-2.185,1.319-3.341,1.319-4.198c0-0.76-0.53-1.739-0.911-1.9L116.61,77.125z"/>
		<g>
			<text transform="matrix(1 0 0 1 116.9062 86.5557)" font-family="'Helvetica-Bold'" font-size="7.0235">71</text>
		</g>
	</g>
	<g>
		<path fill="#FFFFFF" stroke="#000000" stroke-width="0.7298" d="M151.305,76.565c0.762,0.803,1.481,1.318,2.133,1.318
			c0.712,0,1.762-0.516,2.116-1.318c0.354,0.803,1.448,1.318,2.15,1.318c0.652,0,1.37-0.516,2.117-1.318l2.566,2.353
			c-0.379,0.162-0.906,1.14-0.92,1.901c0,0.856,1.317,2.01,1.317,4.196c0,2.934-2.053,5.255-3.599,5.255
			c-0.692,0-1.076-0.119-1.385-0.256c-0.327-0.12-0.573-0.258-0.791-0.258c-0.419,0-1.019,0.463-1.456,0.979
			c-0.433-0.516-1.017-0.979-1.437-0.979c-0.218,0-0.464,0.138-0.788,0.258c-0.316,0.137-0.708,0.256-1.386,0.256
			c-1.546,0-3.597-2.321-3.597-5.255c0-2.186,1.315-3.34,1.315-4.196c0-0.762-0.533-1.739-0.91-1.901L151.305,76.565z"/>
		<g>
			<text transform="matrix(1 0 0 1 151.6006 85.9951)" font-family="'Helvetica-Bold'" font-size="7.0235">53</text>
		</g>
	</g>
	<g>
		<path fill="#FFFFFF" stroke="#000000" stroke-width="0.7298" d="M229.98,270.237c0.757,0.803,1.479,1.319,2.136,1.319
			c0.703,0,1.757-0.517,2.114-1.319c0.352,0.803,1.441,1.319,2.149,1.319c0.649,0,1.373-0.517,2.116-1.319l2.567,2.351
			c-0.377,0.163-0.909,1.143-0.923,1.905c0,0.853,1.318,2.009,1.318,4.196c0,2.935-2.048,5.255-3.6,5.255
			c-0.691,0-1.074-0.122-1.385-0.256c-0.322-0.123-0.572-0.259-0.793-0.259c-0.417,0-1.017,0.462-1.45,0.978
			c-0.435-0.516-1.02-0.978-1.437-0.978c-0.218,0-0.462,0.136-0.79,0.259c-0.312,0.134-0.706,0.256-1.385,0.256
			c-1.546,0-3.599-2.32-3.599-5.255c0-2.188,1.318-3.344,1.318-4.196c0-0.763-0.528-1.742-0.917-1.905L229.98,270.237z"/>
		<g>
			<text transform="matrix(1 0 0 1 230.2744 279.668)" font-family="'Helvetica-Bold'" font-size="7.0235">53</text>
		</g>
	</g>
	<g>
		<path fill="#FFFFFF" stroke="#000000" stroke-width="0.7298" d="M289.994,303.151c0.764,0.801,1.483,1.318,2.135,1.318
			c0.708,0,1.764-0.518,2.119-1.318c0.35,0.801,1.442,1.318,2.146,1.318c0.649,0,1.373-0.518,2.115-1.318l2.569,2.347
			c-0.375,0.165-0.904,1.144-0.921,1.904c0,0.856,1.315,2.012,1.315,4.197c0,2.936-2.043,5.259-3.596,5.259
			c-0.696,0-1.078-0.122-1.389-0.26c-0.323-0.122-0.569-0.26-0.787-0.26c-0.423,0-1.022,0.463-1.454,0.981
			c-0.438-0.519-1.017-0.981-1.437-0.981c-0.221,0-0.461,0.138-0.793,0.26c-0.312,0.138-0.701,0.26-1.385,0.26
			c-1.546,0-3.6-2.323-3.6-5.259c0-2.186,1.323-3.341,1.323-4.197c0-0.761-0.533-1.739-0.917-1.904L289.994,303.151z"/>
		<g>
			<text transform="matrix(1 0 0 1 290.29 312.5811)" font-family="'Helvetica-Bold'" font-size="7.0235">61</text>
		</g>
	</g>
	<g>
		<path fill="#FFFFFF" stroke="#000000" stroke-width="0.7298" d="M453.954,169.024c0.757,0.804,1.479,1.318,2.132,1.318
			c0.701,0,1.767-0.514,2.119-1.318c0.354,0.804,1.444,1.318,2.146,1.318c0.652,0,1.375-0.514,2.124-1.318l2.562,2.351
			c-0.378,0.164-0.908,1.143-0.921,1.902c0,0.857,1.317,2.011,1.317,4.195c0,2.937-2.054,5.26-3.602,5.26
			c-0.69,0-1.072-0.123-1.383-0.261c-0.327-0.121-0.574-0.256-0.785-0.256c-0.425,0-1.023,0.459-1.458,0.979
			c-0.436-0.52-1.021-0.979-1.439-0.979c-0.218,0-0.463,0.135-0.789,0.256c-0.318,0.139-0.708,0.261-1.383,0.261
			c-1.551,0-3.605-2.323-3.605-5.26c0-2.185,1.316-3.338,1.316-4.195c0-0.759-0.525-1.739-0.904-1.902L453.954,169.024z"/>
		<g>
			<text transform="matrix(1 0 0 1 454.2471 178.4536)" font-family="'Helvetica-Bold'" font-size="7.0235">61</text>
		</g>
	</g>
	<g>
		<path fill="#FFFFFF" stroke="#000000" stroke-width="0.7298" d="M249.698,323.911c0.759,0.803,1.481,1.318,2.134,1.318
			c0.705,0,1.761-0.516,2.116-1.318c0.35,0.803,1.44,1.318,2.148,1.318c0.649,0,1.372-0.516,2.116-1.318l2.568,2.353
			c-0.381,0.163-0.907,1.139-0.922,1.899c0,0.857,1.316,2.011,1.316,4.2c0,2.931-2.054,5.255-3.598,5.255
			c-0.693,0-1.075-0.122-1.386-0.258c-0.321-0.123-0.573-0.26-0.79-0.26c-0.417,0-1.021,0.464-1.453,0.977
			c-0.436-0.513-1.021-0.977-1.437-0.977c-0.22,0-0.463,0.137-0.793,0.26c-0.311,0.136-0.707,0.258-1.383,0.258
			c-1.548,0-3.602-2.324-3.602-5.255c0-2.189,1.32-3.343,1.32-4.2c0-0.761-0.528-1.736-0.913-1.899L249.698,323.911z"/>
		<g>
			<text transform="matrix(1 0 0 1 251.9453 333.3418)" font-family="'Helvetica-Bold'" font-size="7.0235">2</text>
		</g>
	</g>
	<g>
		<path fill="#FFFFFF" stroke="#000000" stroke-width="0.7298" d="M183.617,303.469c0.763,0.802,1.488,1.319,2.14,1.319
			c0.703,0,1.761-0.518,2.116-1.319c0.357,0.802,1.442,1.319,2.144,1.319c0.654,0,1.379-0.518,2.121-1.319l2.564,2.348
			c-0.37,0.166-0.904,1.145-0.919,1.905c0,0.855,1.318,2.011,1.318,4.199c0,2.934-2.049,5.256-3.598,5.256
			c-0.693,0-1.075-0.122-1.386-0.26c-0.328-0.124-0.572-0.258-0.788-0.258c-0.423,0-1.02,0.463-1.457,0.979
			c-0.432-0.517-1.017-0.979-1.439-0.979c-0.215,0-0.461,0.134-0.788,0.258c-0.314,0.138-0.708,0.26-1.386,0.26
			c-1.55,0-3.598-2.322-3.598-5.256c0-2.188,1.315-3.344,1.315-4.199c0-0.761-0.528-1.739-0.91-1.905L183.617,303.469z"/>
		<g>
			<text transform="matrix(1 0 0 1 185.8721 312.8984)" font-family="'Helvetica-Bold'" font-size="7.0235">2</text>
		</g>
	</g>
	<g>
		<path fill="#FFFFFF" stroke="#000000" stroke-width="0.7298" d="M31.547,235.5c0.76,0.802,1.48,1.318,2.131,1.318
			c0.706,0,1.766-0.517,2.119-1.318c0.355,0.802,1.441,1.318,2.147,1.318c0.652,0,1.372-0.517,2.12-1.318l2.566,2.352
			c-0.381,0.161-0.909,1.14-0.924,1.901c0,0.854,1.317,2.012,1.317,4.198c0,2.935-2.053,5.257-3.598,5.257
			c-0.693,0-1.075-0.124-1.385-0.258c-0.327-0.124-0.571-0.259-0.788-0.259c-0.422,0-1.021,0.462-1.456,0.979
			c-0.434-0.517-1.018-0.979-1.439-0.979c-0.218,0-0.461,0.135-0.789,0.259c-0.312,0.134-0.706,0.258-1.385,0.258
			c-1.547,0-3.6-2.322-3.6-5.257c0-2.187,1.315-3.345,1.315-4.198c0-0.761-0.527-1.74-0.908-1.901L31.547,235.5z"/>
		<g>
			<text transform="matrix(1 0 0 1 33.7939 244.9307)" font-family="'Helvetica-Bold'" font-size="7.0235">2</text>
		</g>
	</g>
	<g>
		<path fill="#FFFFFF" stroke="#000000" stroke-width="0.7298" d="M235.759,186.37c0.761,0.8,1.483,1.316,2.134,1.316
			c0.707,0,1.767-0.516,2.12-1.316c0.355,0.8,1.442,1.316,2.146,1.316c0.652,0,1.373-0.516,2.121-1.316l2.567,2.348
			c-0.375,0.161-0.908,1.142-0.925,1.902c0,0.856,1.322,2.011,1.322,4.196c0,2.936-2.056,5.258-3.605,5.258
			c-0.693,0-1.072-0.121-1.383-0.258c-0.327-0.122-0.572-0.26-0.791-0.26c-0.422,0-1.019,0.464-1.454,0.982
			c-0.436-0.518-1.02-0.982-1.434-0.982c-0.219,0-0.47,0.138-0.796,0.26c-0.311,0.137-0.701,0.258-1.384,0.258
			c-1.544,0-3.6-2.322-3.6-5.258c0-2.186,1.322-3.34,1.322-4.196c0-0.761-0.533-1.741-0.914-1.902L235.759,186.37z"/>
		<g>
			<text transform="matrix(1 0 0 1 234.1064 195.7979)" font-family="'Helvetica-Bold'" font-size="7.0235">169</text>
		</g>
	</g>
	<g>
		<path fill="#FFFFFF" stroke="#000000" stroke-width="0.7298" d="M101.063,379.95c0.758,0.801,1.476,1.316,2.129,1.316
			c0.708,0,1.767-0.516,2.122-1.316c0.351,0.801,1.439,1.316,2.146,1.316c0.65,0,1.373-0.516,2.118-1.316l2.568,2.349
			c-0.38,0.164-0.91,1.142-0.922,1.902c0,0.855,1.318,2.01,1.318,4.2c0,2.932-2.054,5.255-3.601,5.255
			c-0.691,0-1.075-0.121-1.385-0.257c-0.328-0.123-0.569-0.26-0.789-0.26c-0.422,0-1.016,0.464-1.451,0.979
			c-0.435-0.516-1.019-0.979-1.442-0.979c-0.216,0-0.46,0.137-0.786,0.26c-0.312,0.136-0.707,0.257-1.387,0.257
			c-1.548,0-3.599-2.323-3.599-5.255c0-2.19,1.317-3.345,1.317-4.2c0-0.761-0.529-1.738-0.91-1.902L101.063,379.95z"/>
		<g>
			<text transform="matrix(1 0 0 1 99.4028 389.3789)" font-family="'Helvetica-Bold'" font-size="7.0235">169</text>
		</g>
	</g>
</g>
<g id="nopointer-state-road-symb">
	<g>
		<g>
			
				<linearGradient id="SVGID_3_" gradientUnits="userSpaceOnUse" x1="2289.2871" y1="-1456.1069" x2="2305.0039" y2="-1456.1069" gradientTransform="matrix(0 -0.882 0.882 0 1337.3452 2074.2568)">
				<stop  offset="0.7528" style="stop-color:#0092C8"/>
				<stop  offset="0.755" style="stop-color:#0091C7"/>
				<stop  offset="0.7558" style="stop-color:#008DC2"/>
				<stop  offset="0.7563" style="stop-color:#0087B9"/>
				<stop  offset="0.7568" style="stop-color:#007EAD"/>
				<stop  offset="0.7572" style="stop-color:#00729D"/>
				<stop  offset="0.7575" style="stop-color:#00638A"/>
				<stop  offset="0.7579" style="stop-color:#005273"/>
				<stop  offset="0.7581" style="stop-color:#003A55"/>
				<stop  offset="0.7584" style="stop-color:#000E18"/>
				<stop  offset="0.7584" style="stop-color:#000000"/>
			</linearGradient>
			<path fill="url(#SVGID_3_)" d="M47.418,55.095c-1.026,0-1.371-0.346-1.371-0.868V42.125c0-0.522,0.345-0.865,0.87-0.865
				l5.892-0.013h6.514c0.403-0.042,0.748,0.305,0.748,0.827v12.164c0,0.524-0.345,0.868-0.869,0.868h-6.289L47.418,55.095z"/>
		</g>
		<g>
			<text transform="matrix(1 0 0 1 49.2148 52.4346)" fill="#FFFFFF" font-family="'Helvetica-Bold'" font-size="7.0235">11</text>
		</g>
	</g>
	<g>
		<g>
			
				<linearGradient id="SVGID_4_" gradientUnits="userSpaceOnUse" x1="2284.1553" y1="-1454.5186" x2="2299.873" y2="-1454.5186" gradientTransform="matrix(0 -0.882 0.882 0 1371.9297 2185.9424)">
				<stop  offset="0.7528" style="stop-color:#0092C8"/>
				<stop  offset="0.755" style="stop-color:#0091C7"/>
				<stop  offset="0.7558" style="stop-color:#008DC2"/>
				<stop  offset="0.7563" style="stop-color:#0087B9"/>
				<stop  offset="0.7568" style="stop-color:#007EAD"/>
				<stop  offset="0.7572" style="stop-color:#00729D"/>
				<stop  offset="0.7575" style="stop-color:#00638A"/>
				<stop  offset="0.7579" style="stop-color:#005273"/>
				<stop  offset="0.7581" style="stop-color:#003A55"/>
				<stop  offset="0.7584" style="stop-color:#000E18"/>
				<stop  offset="0.7584" style="stop-color:#000000"/>
			</linearGradient>
			<path fill="url(#SVGID_4_)" d="M83.404,171.304c-1.027,0-1.372-0.344-1.372-0.868v-12.101c0-0.522,0.345-0.866,0.868-0.866
				l5.893-0.012h6.515c0.403-0.041,0.748,0.305,0.748,0.827v12.163c0,0.525-0.345,0.87-0.869,0.87h-6.289L83.404,171.304z"/>
		</g>
		<g>
			<text transform="matrix(1 0 0 1 87.1543 168.6455)" fill="#FFFFFF" font-family="'Helvetica-Bold'" font-size="7.0235">1</text>
		</g>
	</g>
	<g>
		<g>
			
				<linearGradient id="SVGID_5_" gradientUnits="userSpaceOnUse" x1="2283.4551" y1="-1456.311" x2="2299.1738" y2="-1456.311" gradientTransform="matrix(0 -0.882 0.882 0 1332.9028 2201.1729)">
				<stop  offset="0.7528" style="stop-color:#0092C8"/>
				<stop  offset="0.755" style="stop-color:#0091C7"/>
				<stop  offset="0.7558" style="stop-color:#008DC2"/>
				<stop  offset="0.7563" style="stop-color:#0087B9"/>
				<stop  offset="0.7568" style="stop-color:#007EAD"/>
				<stop  offset="0.7572" style="stop-color:#00729D"/>
				<stop  offset="0.7575" style="stop-color:#00638A"/>
				<stop  offset="0.7579" style="stop-color:#005273"/>
				<stop  offset="0.7581" style="stop-color:#003A55"/>
				<stop  offset="0.7584" style="stop-color:#000E18"/>
				<stop  offset="0.7584" style="stop-color:#000000"/>
			</linearGradient>
			<path fill="url(#SVGID_5_)" d="M42.796,187.15c-1.027,0-1.372-0.344-1.372-0.868v-12.101c0-0.522,0.345-0.866,0.87-0.866
				l5.893-0.012H54.7c0.402-0.041,0.749,0.303,0.749,0.828v12.163c0,0.523-0.346,0.87-0.87,0.87h-6.287L42.796,187.15z"/>
		</g>
		<g>
			<text transform="matrix(1 0 0 1 44.5928 184.4922)" fill="#FFFFFF" font-family="'Helvetica-Bold'" font-size="7.0235">46</text>
		</g>
	</g>
	<g>
		<g>
			
				<linearGradient id="SVGID_6_" gradientUnits="userSpaceOnUse" x1="2281.7822" y1="-1442.9478" x2="2297.499" y2="-1442.9478" gradientTransform="matrix(0 -0.882 0.882 0 1623.8564 2237.6611)">
				<stop  offset="0.7528" style="stop-color:#0092C8"/>
				<stop  offset="0.755" style="stop-color:#0091C7"/>
				<stop  offset="0.7558" style="stop-color:#008DC2"/>
				<stop  offset="0.7563" style="stop-color:#0087B9"/>
				<stop  offset="0.7568" style="stop-color:#007EAD"/>
				<stop  offset="0.7572" style="stop-color:#00729D"/>
				<stop  offset="0.7575" style="stop-color:#00638A"/>
				<stop  offset="0.7579" style="stop-color:#005273"/>
				<stop  offset="0.7581" style="stop-color:#003A55"/>
				<stop  offset="0.7584" style="stop-color:#000E18"/>
				<stop  offset="0.7584" style="stop-color:#000000"/>
			</linearGradient>
			<path fill="url(#SVGID_6_)" d="M345.534,225.117c-1.023,0-1.37-0.347-1.37-0.869v-12.101c0-0.521,0.347-0.866,0.869-0.866
				l5.891-0.011h6.515c0.404-0.042,0.75,0.303,0.75,0.824v12.167c0,0.523-0.346,0.868-0.869,0.868h-6.291L345.534,225.117z"/>
		</g>
		<g>
			<text transform="matrix(1 0 0 1 349.2842 222.457)" fill="#FFFFFF" font-family="'Helvetica-Bold'" font-size="7.0235">1</text>
		</g>
	</g>
	<g>
		<g>
			
				<linearGradient id="SVGID_7_" gradientUnits="userSpaceOnUse" x1="2278.8672" y1="-1424.2344" x2="2294.585" y2="-1424.2344" gradientTransform="matrix(0 -0.882 0.882 0 1409.0522 2371.876)">
				<stop  offset="0.7528" style="stop-color:#0092C8"/>
				<stop  offset="0.755" style="stop-color:#0091C7"/>
				<stop  offset="0.7558" style="stop-color:#008DC2"/>
				<stop  offset="0.7563" style="stop-color:#0087B9"/>
				<stop  offset="0.7568" style="stop-color:#007EAD"/>
				<stop  offset="0.7572" style="stop-color:#00729D"/>
				<stop  offset="0.7575" style="stop-color:#00638A"/>
				<stop  offset="0.7579" style="stop-color:#005273"/>
				<stop  offset="0.7581" style="stop-color:#003A55"/>
				<stop  offset="0.7584" style="stop-color:#000E18"/>
				<stop  offset="0.7584" style="stop-color:#000000"/>
			</linearGradient>
			<path fill="url(#SVGID_7_)" d="M147.237,361.902c-1.025,0-1.372-0.346-1.372-0.868v-12.101c0-0.523,0.347-0.866,0.869-0.866
				l5.895-0.013h6.513c0.403-0.042,0.748,0.304,0.748,0.826v12.164c0,0.524-0.345,0.869-0.871,0.869h-6.286L147.237,361.902z"/>
		</g>
		<g>
			<text transform="matrix(1 0 0 1 147.0815 359.2402)" fill="#FFFFFF" font-family="'Helvetica-Bold'" font-size="7.0235">210</text>
		</g>
	</g>
	<g>
		<g>
			
				<linearGradient id="SVGID_8_" gradientUnits="userSpaceOnUse" x1="2282.2324" y1="-1449.957" x2="2297.9521" y2="-1449.957" gradientTransform="matrix(0 -0.882 0.882 0 1471.2412 2227.8291)">
				<stop  offset="0.7528" style="stop-color:#0092C8"/>
				<stop  offset="0.755" style="stop-color:#0091C7"/>
				<stop  offset="0.7558" style="stop-color:#008DC2"/>
				<stop  offset="0.7563" style="stop-color:#0087B9"/>
				<stop  offset="0.7568" style="stop-color:#007EAD"/>
				<stop  offset="0.7572" style="stop-color:#00729D"/>
				<stop  offset="0.7575" style="stop-color:#00638A"/>
				<stop  offset="0.7579" style="stop-color:#005273"/>
				<stop  offset="0.7581" style="stop-color:#003A55"/>
				<stop  offset="0.7584" style="stop-color:#000E18"/>
				<stop  offset="0.7584" style="stop-color:#000000"/>
			</linearGradient>
			<path fill="url(#SVGID_8_)" d="M186.737,214.886c-1.025,0-1.369-0.343-1.369-0.866v-12.103c0-0.521,0.344-0.865,0.869-0.865
				l5.893-0.014h6.512c0.402-0.04,0.749,0.306,0.749,0.828v12.166c0,0.523-0.347,0.868-0.869,0.868h-6.289L186.737,214.886z"/>
		</g>
		<g>
			<text transform="matrix(1 0 0 1 188.5342 212.2266)" fill="#FFFFFF" font-family="'Helvetica-Bold'" font-size="7.0235">73</text>
		</g>
	</g>
	<g>
		<g>
			
				<linearGradient id="SVGID_9_" gradientUnits="userSpaceOnUse" x1="2274.7607" y1="-1452.6997" x2="2290.5117" y2="-1452.6997" gradientTransform="matrix(0 -0.882 0.882 0 1407.1216 2389.8174)">
				<stop  offset="0.7528" style="stop-color:#0092C8"/>
				<stop  offset="0.755" style="stop-color:#0091C7"/>
				<stop  offset="0.7558" style="stop-color:#008DC2"/>
				<stop  offset="0.7563" style="stop-color:#0087B9"/>
				<stop  offset="0.7568" style="stop-color:#007EAD"/>
				<stop  offset="0.7572" style="stop-color:#00729D"/>
				<stop  offset="0.7575" style="stop-color:#00638A"/>
				<stop  offset="0.7579" style="stop-color:#005273"/>
				<stop  offset="0.7581" style="stop-color:#003A55"/>
				<stop  offset="0.7584" style="stop-color:#000E18"/>
				<stop  offset="0.7584" style="stop-color:#000000"/>
			</linearGradient>
			<path fill="url(#SVGID_9_)" d="M120.189,383.466c-1.03,0-1.375-0.347-1.375-0.869V370.47c0-0.522,0.345-0.866,0.871-0.866
				l5.906-0.015h6.525c0.406-0.041,0.752,0.309,0.752,0.829v12.191c0,0.524-0.346,0.868-0.872,0.868h-6.3L120.189,383.466z"/>
		</g>
		<g>
			<text transform="matrix(1 0 0 1 121.9873 380.7988)" fill="#FFFFFF" font-family="'Helvetica-Bold'" font-size="7.038">47</text>
		</g>
	</g>
	<g>
		<g>
			
				<linearGradient id="SVGID_10_" gradientUnits="userSpaceOnUse" x1="2274.793" y1="-1452.9019" x2="2290.5127" y2="-1452.9019" gradientTransform="matrix(0 -0.882 0.882 0 1407.1216 2389.8174)">
				<stop  offset="0.7528" style="stop-color:#0092C8"/>
				<stop  offset="0.755" style="stop-color:#0091C7"/>
				<stop  offset="0.7558" style="stop-color:#008DC2"/>
				<stop  offset="0.7563" style="stop-color:#0087B9"/>
				<stop  offset="0.7568" style="stop-color:#007EAD"/>
				<stop  offset="0.7572" style="stop-color:#00729D"/>
				<stop  offset="0.7575" style="stop-color:#00638A"/>
				<stop  offset="0.7579" style="stop-color:#005273"/>
				<stop  offset="0.7581" style="stop-color:#003A55"/>
				<stop  offset="0.7584" style="stop-color:#000E18"/>
				<stop  offset="0.7584" style="stop-color:#000000"/>
			</linearGradient>
			<path fill="url(#SVGID_10_)" d="M120.023,383.436c-1.028,0-1.373-0.345-1.373-0.866v-12.103c0-0.521,0.345-0.863,0.869-0.863
				l5.894-0.016h6.512c0.405-0.041,0.75,0.309,0.75,0.828v12.166c0,0.523-0.345,0.867-0.87,0.867h-6.287L120.023,383.436z"/>
		</g>
		<g>
			<text transform="matrix(1 0 0 1 121.8174 380.7754)" fill="#FFFFFF" font-family="'Helvetica-Bold'" font-size="7.0235">47</text>
		</g>
	</g>
</g>
<g id="nopointer-city-dots" display="none">
	<circle display="inline" fill="#89C0D9" cx="137.608" cy="57.962" r="5.786"/>
	<path display="inline" fill="#89C0D9" d="M192.767,231.346c3.199,0,5.784-2.59,5.784-5.785s-2.585-5.787-5.784-5.787
		c-3.194,0-5.788,2.592-5.788,5.787S189.573,231.346,192.767,231.346z"/>
	<circle display="inline" fill="#89C0D9" cx="185.5" cy="236.652" r="5.786"/>
	<circle display="inline" fill="#89C0D9" cx="226.532" cy="216.763" r="5.786"/>
	<circle display="inline" fill="#89C0D9" cx="229.245" cy="230.14" r="5.786"/>
	<circle display="inline" fill="#89C0D9" cx="296.003" cy="159.32" r="5.786"/>
	<circle display="inline" fill="#89C0D9" cx="125.799" cy="262.973" r="5.786"/>
	<circle display="inline" fill="#89C0D9" cx="363.372" cy="242.308" r="5.787"/>
	<circle display="inline" fill="#89C0D9" cx="450.941" cy="179.663" r="5.786"/>
	<circle display="inline" fill="#89C0D9" cx="517.109" cy="143.327" r="5.786"/>
	<circle display="inline" fill="#89C0D9" cx="315.544" cy="292.494" r="5.787"/>
	<circle display="inline" fill="#89C0D9" cx="109.057" cy="370.318" r="5.786"/>
	<path display="inline" fill="#89C0D9" d="M211.287,388.66c3.198,0,5.784-2.591,5.784-5.786s-2.586-5.787-5.784-5.787
		c-3.195,0-5.785,2.592-5.785,5.787C205.502,386.068,208.092,388.66,211.287,388.66z"/>
	<path display="inline" fill="#89C0D9" d="M242.967,349.698c3.197,0,5.784-2.591,5.784-5.787c0-3.192-2.586-5.786-5.784-5.786
		c-3.196,0-5.786,2.593-5.786,5.786C237.181,347.107,239.771,349.698,242.967,349.698z"/>
	<path display="inline" fill="#89C0D9" d="M262.866,341.019c4.797,0,8.68-3.884,8.68-8.678c0-4.792-3.882-8.681-8.68-8.681
		c-4.792,0-8.678,3.888-8.678,8.681S258.073,341.019,262.866,341.019z"/>
</g>
<g id="nopointer-county_labels">
	<g>
		<text transform="matrix(0.8 0 0 1 100.6714 130.731)"><tspan x="0" y="0" fill="#4D94B1" font-family="'Arial-BoldMT'" font-size="12">Koochiching</tspan><tspan x="15.668" y="14.4" fill="#4D94B1" font-family="'Arial-BoldMT'" font-size="12">County</tspan></text>
	</g>
	<g>
		<text transform="matrix(0.8 0 0 1 111.3896 215)"><tspan x="0" y="0" fill="#4D94B1" font-family="'Arial-BoldMT'" font-size="12">Itasca</tspan><tspan x="-3.65" y="14.4" fill="#4D94B1" font-family="'Arial-BoldMT'" font-size="12">County</tspan></text>
	</g>
	<g>
		<text transform="matrix(0.8 0 0 1 139.5439 386.9902)"><tspan x="0" y="0" fill="#4D94B1" font-family="'Arial-BoldMT'" font-size="12">Aitkin</tspan><tspan x="-3.996" y="14.4" fill="#4D94B1" font-family="'Arial-BoldMT'" font-size="12">County</tspan></text>
	</g>
	<g>
		<text transform="matrix(0.8 0 0 1 248.5854 228.3716)"><tspan x="0" y="0" fill="#4D94B1" font-family="'Arial-BoldMT'" font-size="12">St Louis</tspan><tspan x="3.003" y="14.4" fill="#4D94B1" font-family="'Arial-BoldMT'" font-size="12">County</tspan></text>
	</g>
	<g>
		<text transform="matrix(0.8 0 0 1 335.0415 169.6108)"><tspan x="0" y="0" fill="#4D94B1" font-family="'Arial-BoldMT'" font-size="12">Lake</tspan><tspan x="-6.987" y="14.4" fill="#4D94B1" font-family="'Arial-BoldMT'" font-size="12">County</tspan></text>
	</g>
	<g>
		<text transform="matrix(0.8 0 0 1 416.7681 151.3452)"><tspan x="0" y="0" fill="#4D94B1" font-family="'Arial-BoldMT'" font-size="12">Cook</tspan><tspan x="-5.663" y="14.4" fill="#4D94B1" font-family="'Arial-BoldMT'" font-size="12">County</tspan></text>
	</g>
	<g>
		<text transform="matrix(0.8 0 0 1 271.4399 395.5049)"><tspan x="0" y="0" fill="#4D94B1" font-family="'Arial-BoldMT'" font-size="12">Douglas</tspan><tspan x="3.006" y="14.399" fill="#4D94B1" font-family="'Arial-BoldMT'" font-size="12">County</tspan></text>
	</g>
	<g>
		<text transform="matrix(0.8 0 0 1 339.5166 389.9414)"><tspan x="0" y="0" fill="#4D94B1" font-family="'Arial-BoldMT'" font-size="12">Bayfield</tspan><tspan x="2.678" y="14.4" fill="#4D94B1" font-family="'Arial-BoldMT'" font-size="12">County</tspan></text>
	</g>
	<g>
		<text transform="matrix(0.8 0 0 1 392.8247 433.3438)"><tspan x="0" y="0" fill="#4D94B1" font-family="'Arial-BoldMT'" font-size="12">Ashland</tspan><tspan x="3.006" y="14.4" fill="#4D94B1" font-family="'Arial-BoldMT'" font-size="12">County</tspan></text>
	</g>
	<g>
		<text transform="matrix(0.8 0 0 1 177.9653 366.0186)"><tspan x="0" y="0" fill="#4D94B1" font-family="'Arial-BoldMT'" font-size="12">Carlton</tspan><tspan x="0.337" y="14.399" fill="#4D94B1" font-family="'Arial-BoldMT'" font-size="12">County</tspan></text>
	</g>
</g>
<g id="nopointer-city-text" display="none">
	<text transform="matrix(1 0 0 1 165.8223 221.6997)" display="inline" font-family="'ArialMT'" font-size="5.2026">Chisholm</text>
	<text transform="matrix(1 0 0 1 188.314 246.5566)" display="inline" font-family="'ArialMT'" font-size="5.2026">Hibbing</text>
	<text transform="matrix(1 0 0 1 207.0454 231.8516)" display="inline" font-family="'ArialMT'" font-size="5.2026">Eveleth</text>
	<text transform="matrix(1 0 0 1 232.2144 214.8916)" display="inline" font-family="'ArialMT'" font-size="5.2026">Virginia</text>
	<text transform="matrix(1 0 0 1 133.2568 264.2959)" display="inline" font-family="'ArialMT'" font-size="5.2026">Grand Rapids</text>
	<text transform="matrix(1 0 0 1 286.4351 152.6396)" display="inline" font-family="'ArialMT'" font-size="5.2026">Ely</text>
	<text transform="matrix(1 0 0 1 142.9385 68.1479)" display="inline"><tspan x="0" y="0" font-family="'ArialMT'" font-size="5.2026">International</tspan><tspan x="8.825" y="6.243" font-family="'ArialMT'" font-size="5.2026">Falls</tspan></text>
	<text transform="matrix(1 0 0 1 312.3042 275.6113)" display="inline"><tspan x="0" y="0" font-family="'ArialMT'" font-size="5.2026">Two</tspan><tspan x="-4.338" y="6.243" font-family="'ArialMT'" font-size="5.2026">Harbors</tspan></text>
	<text transform="matrix(1 0 0 1 343.2358 241.2305)" display="inline"><tspan x="0" y="0" font-family="'ArialMT'" font-size="5.2026">Silver</tspan><tspan x="2.022" y="6.242" font-family="'ArialMT'" font-size="5.2026">Bay</tspan></text>
	<text transform="matrix(1 0 0 1 262.1157 319.0244)" display="inline" font-family="'ArialMT'" font-size="6.243">Duluth</text>
	<text transform="matrix(1 0 0 1 221.772 341.8076)" display="inline" font-family="'ArialMT'" font-size="5.2026">Cloquet</text>
	<text transform="matrix(1 0 0 1 215.6509 384.6104)" display="inline"><tspan x="0" y="0" font-family="'ArialMT'" font-size="5.2026">Moose</tspan><tspan x="2.167" y="6.243" font-family="'ArialMT'" font-size="5.2026">Lake</tspan></text>
	<text transform="matrix(1 0 0 1 443.3828 165.0674)" display="inline"><tspan x="0" y="0" font-family="'ArialMT'" font-size="5.2026">Grand</tspan><tspan x="-0.576" y="6.243" font-family="'ArialMT'" font-size="5.2026">Marais</tspan></text>
	<text transform="matrix(1 0 0 1 97.9204 363.8428)" display="inline" font-family="'ArialMT'" font-size="5.2026">Aitkin</text>
	<text transform="matrix(1 0 0 1 476.7847 148.5698)" display="inline" font-family="'ArialMT'" font-size="5.2026">Grand Portage</text>
</g>
</svg>
